<svg width="30" height="25" viewBox="0 0 30 25" fill="none" xmlns="http://www.w3.org/2000/svg">
<path d="M2.8125 0C1.25977 0 0 1.39974 0 3.125C0 4.10807 0.416016 5.03255 1.125 5.625L13.875 16.25C14.543 16.8034 15.457 16.8034 16.125 16.25L28.875 5.625C29.584 5.03255 30 4.10807 30 3.125C30 1.39974 28.7402 0 27.1875 0H2.8125ZM0 7.29167V20.8333C0 23.1315 1.68164 25 3.75 25H26.25C28.3184 25 30 23.1315 30 20.8333V7.29167L17.25 17.9167C15.9141 19.0299 14.0859 19.0299 12.75 17.9167L0 7.29167Z" fill="white"/>
</svg>
